<svg xmlns="http://www.w3.org/2000/svg" width="580" height="300"><defs><filter id="a" x="-.024" width="1.049" y="-.065" height="1.13" color-interpolation-filters="sRGB"><feGaussianBlur stdDeviation="1.312"/></filter><filter id="b" x="-.024" width="1.049" y="-.065" height="1.13" color-interpolation-filters="sRGB"><feGaussianBlur stdDeviation="1.312"/></filter><filter id="d" x="-.024" width="1.049" y="-.065" height="1.13" color-interpolation-filters="sRGB"><feGaussianBlur stdDeviation="1.312"/></filter><filter id="c" x="-.024" width="1.049" y="-.065" height="1.13" color-interpolation-filters="sRGB"><feGaussianBlur stdDeviation="1.312"/></filter><filter id="h" x="-.024" width="1.049" y="-.065" height="1.13" color-interpolation-filters="sRGB"><feGaussianBlur stdDeviation="1.312"/></filter><filter id="g" x="-.024" width="1.049" y="-.065" height="1.13" color-interpolation-filters="sRGB"><feGaussianBlur stdDeviation="1.312"/></filter><filter id="f" x="-.024" width="1.049" y="-.065" height="1.13" color-interpolation-filters="sRGB"><feGaussianBlur stdDeviation="1.312"/></filter><filter id="e" x="-.024" width="1.049" y="-.065" height="1.13" color-interpolation-filters="sRGB"><feGaussianBlur stdDeviation="1.312"/></filter><filter id="i" x="-.024" width="1.049" y="-.065" height="1.13" color-interpolation-filters="sRGB"><feGaussianBlur stdDeviation="1.312"/></filter></defs><g transform="matrix(1 0 0 .5592 -14.136 -106.57)"><title>Layer 1</title><path transform="matrix(4.04346 0 0 .68083 -76.6 81.262)" fill="#adadb2" fill-opacity=".941" filter="url(#a)" d="M28.4 235.737h129.616v48.353H28.4z"/><path transform="matrix(4.04346 0 0 .68083 -76.6 130.41)" fill="#dddddf" fill-opacity=".941" filter="url(#b)" d="M28.4 235.737h129.616v48.353H28.4z"/><path transform="matrix(4.04346 0 0 .68083 -76.6 181.254)" fill="#dddddf" fill-opacity=".941" filter="url(#c)" d="M28.4 235.737h129.616v48.353H28.4z"/><path transform="matrix(4.04346 0 0 .68083 -76.6 230.402)" fill="#dddddf" fill-opacity=".941" filter="url(#d)" d="M28.4 235.737h129.616v48.353H28.4z"/><path transform="matrix(4.04346 0 0 .68083 -76.6 279.55)" fill="#dddddf" fill-opacity=".941" filter="url(#e)" d="M28.4 235.737h129.616v48.353H28.4z"/><path transform="matrix(4.04346 0 0 .68083 -76.6 328.7)" fill="#dddddf" fill-opacity=".941" filter="url(#f)" d="M28.4 235.737h129.616v48.353H28.4z"/><path transform="matrix(4.04346 0 0 .68083 -76.6 379.542)" fill="#dddddf" fill-opacity=".941" filter="url(#g)" d="M28.4 235.737h129.616v48.353H28.4z"/><path transform="matrix(4.04346 0 0 .68083 -76.6 428.69)" fill="#dddddf" fill-opacity=".941" filter="url(#h)" d="M28.4 235.737h129.616v48.353H28.4z"/><path transform="matrix(4.04346 0 0 .68083 -76.6 477.84)" fill="#dddddf" fill-opacity=".941" filter="url(#i)" d="M28.4 235.737h129.616v48.353H28.4z"/><path fill="#adadb2" fill-opacity=".941" d="M41.315 670.502V273.29h3.457v397.212zM355.48 670.502V273.29h3.456v397.212zM273.028 670.502V273.29h3.457v397.212zM424.662 670.502V273.29h3.457v397.212zM493.845 670.502V273.29h3.457v397.212zM557.342 670.502V273.29h3.457v397.212z"/></g></svg>