<svg xmlns="http://www.w3.org/2000/svg" width="580" height="300"><defs><filter id="c" x="-.022" width="1.044" y="-.161" height="1.323" color-interpolation-filters="sRGB"><feGaussianBlur stdDeviation="3.25"/></filter><filter id="b" x="-.06" width="1.12" y="-.161" height="1.323" color-interpolation-filters="sRGB"><feGaussianBlur stdDeviation="3.25"/></filter><filter id="a" x="-.01" width="1.021" y="-.026" height="1.052" color-interpolation-filters="sRGB"><feGaussianBlur stdDeviation="2.301"/></filter></defs><g transform="matrix(1.03166 0 0 1.08155 -18.427 -16)" fill="#dddddf" fill-opacity=".941" filter="url(#a)"><title>Layer 1</title><path d="M31.75 30.75h140.38v25H31.75zM220.774 30.75h340v25h-340zM31.75 62.078h141.1v25H31.75zM220.774 62.078h340v25h-340zM31.75 93.507h167v25h-167zM220.774 93.507h340v25h-340zM31.75 124.834h111.604v25H31.75zM220.774 125.362h340v55.87h-340zM31.75 187.56h135.345v25H31.75zM220.774 187.717h340v55.87h-340z"/></g><g transform="matrix(1 0 0 .5592 -14.136 122.776)"><title>Layer 1</title><path fill="#dddddf" fill-opacity=".941" filter="url(#b)" d="M28.4 235.737h129.616v48.353H28.4z"/><path fill="#dddddf" fill-opacity=".941" filter="url(#c)" d="M223.41 235.737h350.765v48.353H223.41z"/></g></svg>